<?xml version="1.0" encoding="UTF-8" standalone="no"?>
<!-- Created with Inkscape (http://www.inkscape.org/) -->

<svg
   xmlns:dc="http://purl.org/dc/elements/1.1/"
   xmlns:cc="http://creativecommons.org/ns#"
   xmlns:rdf="http://www.w3.org/1999/02/22-rdf-syntax-ns#"
   xmlns:svg="http://www.w3.org/2000/svg"
   xmlns="http://www.w3.org/2000/svg"
   xmlns:sodipodi="http://sodipodi.sourceforge.net/DTD/sodipodi-0.dtd"
   xmlns:inkscape="http://www.inkscape.org/namespaces/inkscape"
   width="210mm"
   height="297mm"
   viewBox="0 0 744.09448819 1052.3622047"
   id="svg2"
   version="1.1"
   inkscape:version="0.91 r13725"
   sodipodi:docname="logo-ufms-branco.svg">
  <defs
     id="defs4" />
  <sodipodi:namedview
     id="base"
     pagecolor="#ffffff"
     bordercolor="#666666"
     borderopacity="1.0"
     inkscape:pageopacity="0.0"
     inkscape:pageshadow="2"
     inkscape:zoom="0.35"
     inkscape:cx="-152.14286"
     inkscape:cy="520"
     inkscape:document-units="px"
     inkscape:current-layer="layer1"
     showgrid="false"
     inkscape:window-width="1366"
     inkscape:window-height="706"
     inkscape:window-x="-8"
     inkscape:window-y="-8"
     inkscape:window-maximized="1" />
  <metadata
     id="metadata7">
    <rdf:RDF>
      <cc:Work
         rdf:about="">
        <dc:format>image/svg+xml</dc:format>
        <dc:type
           rdf:resource="http://purl.org/dc/dcmitype/StillImage" />
        <dc:title></dc:title>
      </cc:Work>
    </rdf:RDF>
  </metadata>
  <g
     inkscape:label="Camada 1"
     inkscape:groupmode="layer"
     id="layer1">
    <g
       transform="matrix(1.25,0,0,-1.25,138.74889,829.86224)"
       inkscape:label="ink_ext_XXXXXX"
       id="g3344"
       style="fill:#ffffff">
      <g
         transform="scale(0.1,0.1)"
         id="g3346"
         style="fill:#ffffff">
        <path
           inkscape:connector-curvature="0"
           id="path3348"
           style="fill:#ffffff;fill-opacity:1;fill-rule:evenodd;stroke:none"
           d="m 200.191,4858.41 3332.399,0 c 106.16,0 193,-86.84 193,-192.98 l 0,-4471.934 c 0,-106.1288 -86.86,-193.007719 -193,-193.007719 l -3332.399,0 C 94.0469,0.488281 7.18359,87.3477 7.18359,193.496 l 0,4471.934 c 0,106.14 86.84371,192.98 193.00741,192.98" />
        <path
           inkscape:connector-curvature="0"
           id="path3350"
           style="fill:#ffffff;fill-opacity:1;fill-rule:evenodd;stroke:none"
           d="m 2813.68,289.633 92.62,226.121 c 41.58,-28.992 78.51,-50.289 111.06,-63.629 32.58,-13.383 63.08,-20.152 91.32,-20.152 19.95,0 35.57,3.75 46.87,11.289 11.49,7.539 17.13,17.703 17.13,30.691 0,22.402 -28.43,39.535 -85.47,51.199 -18.44,4.145 -32.77,7.161 -43.11,9.434 -60.26,14.684 -106.38,40.855 -138.37,78.312 -32,37.461 -48.02,84.161 -48.02,140.075 0,86.781 31.06,157.382 93.2,211.773 62.13,54.414 143.64,81.714 244.38,81.714 46.5,0 92.05,-6.02 136.85,-18.24 44.82,-12.06 90.18,-30.493 135.75,-55.165 l -88.3,-211.242 c -27.87,20.527 -55.92,36.335 -84.16,47.269 -28.05,10.719 -55.34,16.164 -81.89,16.164 -20.13,0 -35.78,-3.371 -46.87,-10.141 -11.12,-6.773 -16.58,-16.382 -16.58,-28.445 0,-22.797 40.3,-42.926 120.87,-60.055 12.8,-3 22.77,-5.269 29.74,-6.789 55.56,-12.418 99.24,-38.015 131.21,-76.601 32.01,-38.625 48.02,-85.301 48.02,-140.094 0,-89.226 -32.19,-162.273 -96.75,-218.937 -64.58,-56.664 -148.56,-84.907 -251.92,-84.907 -52.9,0 -105.79,7.516 -158.71,22.578 -53.09,15.079 -105.98,37.657 -158.87,67.778" />
        <path
           inkscape:connector-curvature="0"
           id="path3352"
           style="fill:#ffffff;fill-opacity:1;fill-rule:evenodd;stroke:none"
           d="m 2522.42,220.73 -35.21,319.852 c -2.27,24.695 -4.52,49.148 -6.59,73.641 -2.27,24.453 -4.15,49.121 -5.65,73.617 -3.2,-23.172 -7.92,-47.645 -13.93,-73.617 -6.02,-25.797 -13.56,-53.469 -22.4,-83.055 l -92.65,-310.438 -172.62,0 -92.62,310.438 c -9.24,29.586 -16.76,57.258 -22.6,83.055 -5.84,25.972 -10.54,50.445 -13.74,73.617 -1.89,-24.867 -3.77,-49.52 -5.84,-73.813 -2.07,-24.297 -4.14,-48.75 -6.41,-73.445 l -35.19,-319.852 -284.67,0 137.83,807.49 299.52,0 57.44,-199.775 c 1.67,-6.199 4.52,-15.613 8.27,-28.047 24.29,-84.16 39.15,-153.433 44.6,-207.828 l 4.89,0 c 4.54,34.086 11.13,70.602 19.98,109.184 8.84,38.605 20.51,81.887 35.21,130.086 l 60.23,196.38 298.78,0 128.03,-807.49 -284.66,0" />
        <path
           inkscape:connector-curvature="0"
           id="path3354"
           style="fill:#ffffff;fill-opacity:1;fill-rule:evenodd;stroke:none"
           d="m 1145.05,220.73 0,807.49 539.96,0 0,-218.939 -249.28,0 0,-93.789 225.55,0 0,-206.883 -225.55,0 0,-287.879 -290.68,0" />
        <path
           inkscape:connector-curvature="0"
           id="path3356"
           style="fill:#ffffff;fill-opacity:1;fill-rule:evenodd;stroke:none"
           d="m 252.848,590.301 0,437.919 290.109,0 0,-439.993 c 0,-51.196 6.063,-86.426 18.301,-105.61 12.035,-19.422 32.742,-28.992 62.308,-28.992 28.993,0 49.696,9.984 62.11,29.742 12.633,19.953 18.828,54.789 18.828,104.86 l 0,439.993 290.133,0 0,-437.919 c 0,-57.215 -3.75,-104.485 -11.289,-141.75 -7.543,-37.082 -19.602,-68.153 -36.16,-93.196 C 914.797,305.086 870.75,266.301 814.832,239.559 758.898,212.637 695.09,199.277 623.566,199.277 c -72.121,0 -136.128,13.36 -192.019,40.282 -55.953,26.742 -99.988,65.527 -132.375,115.796 -16.184,24.649 -27.848,55.321 -35.211,92.227 -7.34,36.734 -11.113,84.359 -11.113,142.719" />
        <path
           inkscape:connector-curvature="0"
           id="path3358"
           style="fill:#ffffff;fill-opacity:1;fill-rule:evenodd;stroke:none"
           d="m 1220.34,1675.1 99.1211,0 0,2815.61 -99.1211,0 0,-2815.61 z" />
        <path
           inkscape:connector-curvature="0"
           id="path3360"
           style="fill:#ffffff;fill-opacity:1;fill-rule:evenodd;stroke:none"
           d="m 1383.73,1675.1 99.1172,0 0,2815.61 -99.1172,0 0,-2815.61 z" />
        <path
           inkscape:connector-curvature="0"
           id="path3362"
           style="fill:#ffffff;fill-opacity:1;fill-rule:evenodd;stroke:none"
           d="m 1547.12,1675.1 99.1172,0 0,2815.61 -99.1172,0 0,-2815.61 z" />
        <path
           inkscape:connector-curvature="0"
           id="path3364"
           style="fill:#ffffff;fill-opacity:1;fill-rule:evenodd;stroke:none"
           d="m 2207.56,1675.1 99.1211,0 0,2815.61 -99.1211,0 0,-2815.61 z" />
        <path
           inkscape:connector-curvature="0"
           id="path3366"
           style="fill:#ffffff;fill-opacity:1;fill-rule:evenodd;stroke:none"
           d="m 1710.51,1675.1 60.7617,0 0,2864.97 -60.7617,0 0,-2864.97 z" />
        <path
           inkscape:connector-curvature="0"
           id="path3368"
           style="fill:#ffffff;fill-opacity:1;fill-rule:evenodd;stroke:none"
           d="m 1835.54,1675.1 63.8047,0 0,2914.53 -63.8047,0 0,-2914.53 z" />
        <path
           inkscape:connector-curvature="0"
           id="path3370"
           style="fill:#ffffff;fill-opacity:1;fill-rule:evenodd;stroke:none"
           d="m 1963.61,1675.1 62.7773,0 0,2962.54 -62.7773,0 0,-2962.54 z" />
        <path
           inkscape:connector-curvature="0"
           id="path3372"
           style="fill:#ffffff;fill-opacity:1;fill-rule:evenodd;stroke:none"
           d="m 2090.66,1675.1 52.6289,0 0,3005.91 -52.6289,0 0,-3005.91 z" />
        <path
           inkscape:connector-curvature="0"
           id="path3374"
           style="fill:#ffffff;fill-opacity:1;fill-rule:evenodd;stroke:none"
           d="m 2370.95,1675.1 99.1211,0 0,2815.61 -99.1211,0 0,-2815.61 z" />
        <path
           inkscape:connector-curvature="0"
           id="path3376"
           style="fill:#ffffff;fill-opacity:1;fill-rule:evenodd;stroke:none"
           d="m 2469.41,2004.5 c 591.11,-53.51 1008.33,-183.3 1008.33,-334.9 0,-199.36 -721.58,-361.03 -1611.35,-361.03 -889.769,0 -1611.351,161.67 -1611.351,361.03 0,151.24 415.297,280.77 1004.201,334.5 l 0.43,-41.25 C 670.531,1904.23 255.039,1762.83 255.039,1597.73 c 0,-217.58 721.582,-394.03 1611.351,-394.03 889.77,0 1611.35,176.45 1611.35,394.03 0,165.42 -417.04,307.06 -1007.97,365.47 l -0.36,41.3" />
        <path
           inkscape:connector-curvature="0"
           id="path3378"
           style="fill:#ffffff;fill-opacity:1;fill-rule:evenodd;stroke:none"
           d="m 1258.43,1721.91 c -53.27,2.35 -122.52,5.43 -216.75,9.59 -136.137,6.03 -349.282,15.46 -729.321,32.29 -7.179,-9.16 -14.488,-18.49 -21.914,-27.97 -7.547,-9.63 -15.238,-19.44 -23.062,-29.41 407.465,-0.64 630.898,-0.99 771.647,-1.21 96.38,-0.14 167.05,-0.26 220.94,-0.35 -0.25,2.88 -0.51,5.75 -0.77,8.59 -0.26,2.84 -0.52,5.67 -0.77,8.47" />
        <path
           inkscape:connector-curvature="0"
           id="path3380"
           style="fill:#ffffff;fill-opacity:1;fill-rule:evenodd;stroke:none"
           d="m 369.746,1799.46 c 471.418,-35.45 656.214,-49.34 754.504,-56.73 60.77,-4.56 102.38,-7.69 132.62,-9.96 0.27,1.57 0.53,3.14 0.79,4.69 0.25,1.54 0.51,3.09 0.77,4.61 -29.41,3.68 -69.57,8.73 -127.82,16.04 -93.02,11.68 -263.59,33.07 -675.567,84.77 -13.172,-6.71 -26.754,-13.61 -40.719,-20.73 -14.398,-7.33 -29.258,-14.89 -44.578,-22.69" />
        <path
           inkscape:connector-curvature="0"
           id="path3382"
           style="fill:#ffffff;fill-opacity:1;fill-rule:evenodd;stroke:none"
           d="m 616.34,1894.07 c 277.672,-55.82 420.97,-84.61 508.2,-102.14 58.42,-11.73 100.57,-20.21 132.33,-26.59 0.26,-1.76 0.52,-3.54 0.77,-5.34 0.25,-1.82 0.52,-3.66 0.79,-5.52 -32.81,5.04 -76.73,11.79 -138.56,21.31 -94.28,14.51 -254.772,39.19 -587.276,90.36 15.539,5.18 30.406,10.13 44.605,14.87 13.598,4.53 26.656,8.89 39.141,13.05" />
        <path
           inkscape:connector-curvature="0"
           id="path3384"
           style="fill:#ffffff;fill-opacity:1;fill-rule:evenodd;stroke:none"
           d="m 749.723,1928.18 c 230.441,-64.64 343.227,-96.28 410.017,-115.01 43.95,-12.33 75.24,-21.11 98.69,-27.67 0.25,-1.51 0.51,-3.04 0.76,-4.57 0.26,-1.56 0.52,-3.13 0.78,-4.73 -24.09,5.41 -56.8,12.76 -103.35,23.23 -72.51,16.31 -200.14,45 -482.893,108.59 14.347,3.8 27.949,7.42 40.859,10.84 12.281,3.26 23.984,6.37 35.137,9.32" />
        <path
           inkscape:connector-curvature="0"
           id="path3386"
           style="fill:#ffffff;fill-opacity:1;fill-rule:evenodd;stroke:none"
           d="m 3383.2,1788.6 c -390.26,-23.96 -593.84,-36.48 -718.45,-44.13 -83.97,-5.15 -144.68,-8.88 -190.4,-11.7 -0.26,-2.28 -0.52,-4.59 -0.77,-6.89 -0.26,-2.33 -0.52,-4.67 -0.78,-7.03 46.48,0.89 108.52,2.08 195.16,3.73 130.31,2.49 346.97,6.63 777.27,14.84 -10.98,9.06 -21.69,17.89 -32.14,26.51 -10.2,8.41 -20.16,16.64 -29.89,24.67" />
        <path
           inkscape:connector-curvature="0"
           id="path3388"
           style="fill:#ffffff;fill-opacity:1;fill-rule:evenodd;stroke:none"
           d="m 3237.41,1856.84 c -370.1,-49.42 -536.31,-71.63 -630.34,-84.18 -60.35,-8.05 -102.52,-13.69 -133.52,-17.85 0.25,-1.76 0.5,-3.55 0.76,-5.35 0.26,-1.81 0.52,-3.64 0.78,-5.48 32.08,2.59 76.18,6.13 139.9,11.25 101.17,8.13 285.69,22.94 724.78,58.18 -18.78,7.97 -36.81,15.63 -54.15,22.98 -16.66,7.07 -32.74,13.89 -48.21,20.45" />
        <path
           inkscape:connector-curvature="0"
           id="path3390"
           style="fill:#ffffff;fill-opacity:1;fill-rule:evenodd;stroke:none"
           d="m 3049.75,1912.68 c -256.34,-59.56 -384.02,-89.25 -460.23,-106.97 -50.49,-11.73 -86.65,-20.12 -113.62,-26.41 -0.25,-2.24 -0.51,-4.51 -0.76,-6.82 -0.25,-2.34 -0.52,-4.72 -0.79,-7.14 28.26,4.52 66.66,10.67 121.64,19.44 85.89,13.7 237.82,37.95 577.83,92.22 -24.47,7.04 -47.23,13.58 -68.41,19.67 -19.77,5.68 -38.3,11.01 -55.66,16.01" />
        <path
           inkscape:connector-curvature="0"
           id="path3392"
           style="fill:#ffffff;fill-opacity:1;fill-rule:evenodd;stroke:none"
           d="m 2821.76,1957.65 c -158.12,-70.96 -235.52,-105.69 -281.3,-126.25 -30.15,-13.54 -51.64,-23.19 -67.66,-30.39 0,-1.97 0,-3.98 0,-6.03 0,-2.09 0,-4.21 0,-6.38 17.01,5.76 40.34,13.6 73.97,24.93 53.06,17.86 148.91,50.17 372.69,125.51 -19.89,3.8 -38.12,7.27 -54.83,10.45 -15.41,2.93 -29.66,5.65 -42.87,8.16" />
        <path
           inkscape:connector-curvature="0"
           id="path3394"
           style="fill:#ffffff;fill-opacity:1;fill-rule:evenodd;stroke:none"
           d="m 1686.48,1676.94 c 12.16,-0.29 24.46,-0.59 36.85,-0.88 12.49,-0.3 25.13,-0.61 37.87,-0.91 -58.43,-21.4 -132.04,-48.31 -227.35,-83.16 -129.01,-47.16 -312.8,-114.4 -594.916,-217.49 -23.293,4.39 -46.047,8.68 -68.235,12.85 -21.679,4.08 -42.898,8.08 -63.594,11.97 293.345,92.59 489.035,154.36 628.655,198.45 104.4,32.95 185.71,58.62 250.72,79.17" />
        <path
           inkscape:connector-curvature="0"
           id="path3396"
           style="fill:#ffffff;fill-opacity:1;fill-rule:evenodd;stroke:none"
           d="m 1545.41,1675.92 c 10.91,-0.25 21.94,-0.5 33.09,-0.76 11.25,-0.26 22.66,-0.52 34.2,-0.79 -55.4,-15.84 -126.82,-36.26 -222.07,-63.47 -134.25,-38.36 -336.87,-96.24 -676.685,-193.31 -19.957,5.02 -39.285,9.89 -57.949,14.59 -18.101,4.55 -35.656,8.98 -52.652,13.25 342.289,83.72 554.196,135.57 698.036,170.77 103.74,25.39 182.39,44.62 244.03,59.72" />
        <path
           inkscape:connector-curvature="0"
           id="path3398"
           style="fill:#ffffff;fill-opacity:1;fill-rule:evenodd;stroke:none"
           d="m 1401.11,1675.39 c 10.75,-0.16 21.65,-0.33 32.71,-0.5 11.25,-0.16 22.66,-0.34 34.24,-0.52 -51.24,-11.29 -118.43,-26.06 -210.18,-46.24 -133.52,-29.36 -344.946,-75.86 -728.786,-160.27 -15.336,5.91 -29.91,11.51 -43.746,16.83 -13.184,5.08 -25.762,9.92 -37.754,14.53 366.625,67.72 581.566,107.42 722.666,133.5 99.4,18.37 173.53,32.06 230.85,42.67" />
        <path
           inkscape:connector-curvature="0"
           id="path3400"
           style="fill:#ffffff;fill-opacity:1;fill-rule:evenodd;stroke:none"
           d="m 1261.53,1676.94 c 11.72,0 23.73,0 35.98,0 12.55,0 25.35,0 38.46,0 -23.91,-3.29 -57.7,-7.91 -108.83,-14.89 -87.41,-11.94 -269.285,-36.8 -872.07,-119.16 -14.847,11.26 -27.414,20.81 -38.168,28.96 -9.297,7.05 -17.429,13.22 -24.597,18.66 507.82,45.28 711.285,63.41 820.605,73.16 68.07,6.06 114.68,10.23 148.62,13.27" />
        <path
           inkscape:connector-curvature="0"
           id="path3402"
           style="fill:#ffffff;fill-opacity:1;fill-rule:evenodd;stroke:none"
           d="m 2393.7,1675.39 c 14.25,0 28.23,0 41.82,0 13.22,0 26.16,0 38.83,0 30.72,-2.15 73.35,-5.12 136.31,-9.5 103.29,-7.19 302.57,-21.07 843.88,-58.75 -6.04,-5.39 -13.12,-11.71 -21.5,-19.19 -10.13,-9.05 -22.61,-20.2 -38.31,-34.24 -671.74,81.63 -837.4,101.78 -912.09,110.86 -42.32,5.14 -69.75,8.47 -88.94,10.82" />
        <path
           inkscape:connector-curvature="0"
           id="path3404"
           style="fill:#ffffff;fill-opacity:1;fill-rule:evenodd;stroke:none"
           d="m 2258.53,1675.15 c 11.83,0.04 23.53,0.08 35.01,0.12 11.31,0.03 22.49,0.09 33.48,0.12 45.61,-7.91 106.57,-18.49 191.95,-33.29 129.12,-22.37 345.9,-59.94 783.58,-135.76 -15.09,-5.51 -31.16,-11.39 -48.28,-17.64 -18.34,-6.71 -37.99,-13.89 -59.09,-21.61 -456.77,101.45 -659.95,146.57 -774.52,172.02 -73.28,16.28 -124.45,27.66 -162.13,36.04" />
        <path
           inkscape:connector-curvature="0"
           id="path3406"
           style="fill:#ffffff;fill-opacity:1;fill-rule:evenodd;stroke:none"
           d="m 2147.92,1674.37 c 4.79,0.69 9.59,1.38 14.36,2.07 4.76,0.68 9.53,1.36 14.29,2.04 34.93,-9.25 82.68,-21.87 151.44,-40.05 108.76,-28.75 305.23,-80.72 765.07,-202.28 -20.25,-4.49 -40.66,-9.02 -61.22,-13.59 -20.74,-4.6 -41.66,-9.25 -62.76,-13.93 -416.17,134.65 -591.47,191.39 -687.82,222.57 -60.69,19.63 -102.67,33.21 -133.36,43.17" />
        <path
           inkscape:connector-curvature="0"
           id="path3408"
           style="fill:#ffffff;fill-opacity:1;fill-rule:evenodd;stroke:none"
           d="m 2065.17,1675.15 c 4.62,0.3 9.25,0.6 13.86,0.89 4.6,0.3 9.2,0.6 13.79,0.9 28.91,-10.95 68.42,-25.89 125.52,-47.46 90.46,-34.18 254.77,-96.26 642.71,-242.83 -19.77,-2.98 -39.73,-6 -59.85,-9.04 -20.33,-3.07 -40.9,-6.17 -61.64,-9.31 -344.71,156.8 -488.08,222.03 -566.45,257.69 -49.2,22.39 -83.13,37.84 -107.94,49.16" />
      </g>
    </g>
  </g>
</svg>
